<?xml version="1.0" encoding="utf-8"?>
<!-- Generator: Adobe Illustrator 21.1.0, SVG Export Plug-In . SVG Version: 6.00 Build 0)  -->
<svg version="1.1" id="Lager_1" xmlns="http://www.w3.org/2000/svg" xmlns:xlink="http://www.w3.org/1999/xlink" x="0px" y="0px"
	 viewBox="0 0 168 110.9" style="enable-background:new 0 0 168 110.9;" xml:space="preserve">
<g>
	<path d="M118.1,3.4c6.1-3,9.2-2.6,9.2,0.5c0.1,4-0.5,9.2-0.9,13c-2.3,20.6-6.1,37.5-6.4,58.7c10-25.9,18.3-43.8,29.1-65.9
		c3.4-7.1,5.7-5.7,8.5-7.1c10.9-4.9,11.3-1.9,9.9,4.2c-5.3,22-18.8,91.4-20.9,102c-0.6,3.1-4,1.9-4.8,0.6c-4-5.4-8.4-5.4-7.9-9.1
		c2.5-17.7,11.3-62.5,13.6-73c-11.7,23.9-23.8,53.9-30,70.8c-1.3,3.6-3.7,3.3-5.2,0.7c-2.2-3.8-6.2-5.7-6.8-10
		c-2.2-13.9,2.4-40.4,3-57.3c-6.3,18.3-17,54-21.6,70.1c-1.9,6.7-8.4,5.5-6.7-0.9c7.1-27.1,22.4-74.8,29-91.9
		C110.6,4.9,114.7,5.1,118.1,3.4L118.1,3.4z"/>
	<path d="M79.4,0c-2.1-0.5-8.1,2.8-11.9,3.3c-1.2,0.3-2.2,1.5-2.6,2.4C59,19.4,53.7,32.2,49.2,43.9c-5.9,1.1-12.7,2.4-20.3,4
		c5.5-14,11-27.9,16.4-41.1c2.6-6.7-4.3-7.3-7.1-0.6C34.7,14.8,28.1,31,20.8,49.9c-5.4,1.3-11.2,2.8-17.1,4.6
		c-4.3,1.2-4.5,2.3-2.6,5c1.1,1.4,3.1,1.2,4.1,2.3c2.6,2.6,4.1,5.8,8.7,6.3C9.7,78.9,5.7,90,2.1,100.6c-2.3,6.7,4.3,8.1,6.8,1
		c4-11.4,8.3-23,12.7-34.7c3.6-0.8,12.4-2.6,20.6-4.5c-6.4,17.8-10.6,31.3-12.3,37.9c-0.3,1.2,0.3,1.9,0.5,2.5
		c2.1,3.1,4.3,3.3,7.1,7.2c0.7,1.1,3.3,1.6,4.2-1c6-18.2,12-35.1,17.8-50.3c2.4-0.6,6.8-1.6,9.4-5.5c4.7-7,6-5.6,7.2-7.7
		c1.4-2.7,0.4-5.1-4.6-4.6c0,0-1.9,0.2-5.4,0.5C71.6,27.3,76.6,15.3,80,6C81.1,2.8,81.3,0.5,79.4,0L79.4,0z"/>
	<path d="M74,88.2c0.8-1,1.5-2.1,2.2-3.1c2.9-4.3,0.1-6.9-2.9-4.3c-0.4,0.4-0.9,0.8-1.3,1.3c-0.5-1.5-1-3.2-1.5-4.7
		c1.4-1.7,2.7-3.4,3.9-5.2c4.9-7.5-4.7-11.9-8.8-7c-2.2,2.6-1.6,5.1-1,7.4c0.2,0.7,0.5,1.6,0.8,2.8c-1.2,1.2-2.6,2.7-4.4,4.9
		c-4.7,5.4-3.4,12.4,1.6,14c3,0.9,5.8-0.4,8.3-2.6c0.1,0.3,0.2,0.6,0.3,0.9c1.3,3.3,5.4,2.3,3.8-1.7C74.7,90.2,74.3,89.3,74,88.2
		L74,88.2z M67.2,81.4c0.4,1.3,0.8,2.6,1.3,3.9c-0.5,0.5-1.1,0.9-1.6,1.2c-1.9,1.1-3.3-0.1-0.9-3.4C66.4,82.5,66.8,81.9,67.2,81.4
		L67.2,81.4z M68.8,71.9c-0.1-0.4-0.2-0.7-0.3-1c-1.4-5.2,4.6-3.8,1.6-0.4C69.6,71,69.2,71.5,68.8,71.9L68.8,71.9z"/>
</g>
</svg>
