<?xml version="1.0" encoding="utf-8"?>
<!-- Generator: Adobe Illustrator 21.1.0, SVG Export Plug-In . SVG Version: 6.00 Build 0)  -->
<svg version="1.1" id="Lager_1" xmlns="http://www.w3.org/2000/svg" xmlns:xlink="http://www.w3.org/1999/xlink" x="0px" y="0px"
	 viewBox="0 0 109.8 125.2" style="enable-background:new 0 0 109.8 125.2;" xml:space="preserve">
<style type="text/css">
	.st0{fill:#FFFFFF;stroke:#000000;stroke-width:3;stroke-miterlimit:10;}
	.st1{fill:none;stroke:#000000;stroke-width:3;stroke-miterlimit:10;}
</style>
<g>
	<circle class="st0" cx="83" cy="51.5" r="24.3"/>
	<circle cx="90.7" cy="43.2" r="3.2"/>
	<circle cx="76.4" cy="43.2" r="3.2"/>
	<path class="st1" d="M94.6,52.4c0,6.4-5.2,11.7-11.7,11.7s-11.7-5.2-11.7-11.7"/>
</g>
<g>
	<circle class="st0" cx="26.7" cy="51.5" r="24.3"/>
	<circle cx="34.4" cy="43.2" r="3.2"/>
	<circle cx="20.1" cy="43.2" r="3.2"/>
	<path class="st1" d="M38.3,52.4c0,6.4-5.2,11.7-11.7,11.7S15,58.9,15,52.4"/>
</g>
<g>
	<circle class="st0" cx="54.8" cy="98.8" r="24.3"/>
	<circle cx="62.6" cy="90.5" r="3.2"/>
	<circle cx="48.3" cy="90.5" r="3.2"/>
	<path class="st1" d="M66.5,99.8c0,6.4-5.2,11.7-11.7,11.7s-11.7-5.2-11.7-11.7"/>
</g>
</svg>
