<?xml version="1.0" encoding="utf-8"?>
<!-- Generator: Adobe Illustrator 21.1.0, SVG Export Plug-In . SVG Version: 6.00 Build 0)  -->
<svg version="1.1" id="Lager_1" xmlns="http://www.w3.org/2000/svg" xmlns:xlink="http://www.w3.org/1999/xlink" x="0px" y="0px"
	 viewBox="0 0 182.1 134.1" style="enable-background:new 0 0 182.1 134.1;" xml:space="preserve">
<path id="XMLID_2_" d="M162.8,0H5C2.2,0,0,2.2,0,5v0c0,2.8,2.2,5,5,5h157.8c2.8,0,5-2.2,5-5v0C167.8,2.2,165.5,0,162.8,0z"/>
<path id="XMLID_3_" d="M177.1,20H19.3c-2.8,0-5,2.2-5,5v0c0,2.8,2.2,5,5,5h157.8c2.8,0,5-2.2,5-5v0C182.1,22.2,179.9,20,177.1,20z"
	/>
<g id="XMLID_12_">
	<g id="XMLID_25_">
		<path id="XMLID_26_" d="M138.8,40H67.7c-1.2,0-2.4,0.5-3.2,1.2c-0.1,0.1-0.1,0.1-0.2,0.2c-0.1,0.1-0.2,0.2-0.3,0.3
			c-0.5,0.6-1,1.3-1.2,2.1l-17.3,64c-0.7,2.7,0.9,5.4,3.5,6.1l0,0c2.7,0.7,5.4-0.9,6.1-3.5L71.5,50h67.3c2.8,0,5-2.2,5-5v0
			C143.8,42.2,141.5,40,138.8,40z"/>
	</g>
</g>
<g id="XMLID_5_">
	<g>
		<path d="M151,60H85c-1.2,0-2.4,0.5-3.2,1.2c-0.1,0.1-0.1,0.1-0.2,0.2c-0.1,0.1-0.2,0.2-0.3,0.3c-0.5,0.6-1,1.3-1.2,2.1l-17.3,64
			c-0.7,2.7,0.9,5.4,3.5,6.1l0,0c2.7,0.7,5.4-0.9,6.1-3.5L88.8,70H151c2.8,0,5-2.2,5-5v0C156,62.2,153.7,60,151,60z"/>
	</g>
</g>
</svg>
